<svg
   xmlns="http://www.w3.org/2000/svg" 
   ><path
   fill="currentColor"
   d="m 145.29785,96.59884 c -5.46978,2.348182 -4.12138,11.60624 -4.12138,16.34234 0,12.85094 3.68056,33.10567 -1.29349,45.08873 -2.22668,5.36428 -11.90845,3.01891 -16.45441,3.45156 -9.65545,0.91889 -19.33479,0.66979 -29.042016,0.66979 -3.064349,0 -8.394232,-0.95665 -10.807346,1.40557 -3.163521,3.0968 -2.100217,13.76844 -2.100217,17.95578 0,4.901 -1.377882,17.28501 4.080919,19.56923 10.76766,4.50566 28.64197,-0.12659 40.28883,0.67102 3.72191,0.25486 11.55765,-0.33034 13.69187,3.27421 3.00125,5.0689 1.56144,18.89466 1.63275,24.8889 0.25265,21.23694 0.003,42.49249 0.003,63.7311 0,5.5603 -2.48974,19.11845 0.82914,23.67507 1.84867,2.5381 6.10339,2.11701 8.85153,2.48241 7.95659,1.05798 19.61335,2.03556 27.30906,-0.68038 2.98939,-1.05503 2.53429,-4.30748 2.53968,-6.92248 v -20.16807 c 0,-22.2834 -0.78615,-44.75169 0.73452,-66.95798 0.40354,-5.89296 -1.17124,-12.81525 0.32866,-18.53907 1.42708,-5.44587 8.3997,-3.83331 12.65111,-4.39153 11.45776,-1.50443 23.1788,0.25171 34.68907,-0.53655 4.34379,-0.29745 10.38712,0.30213 11.47714,-4.78371 1.01197,-4.72167 0.6237,-9.70849 0.6237,-14.50545 0,-4.93359 1.32961,-13.93827 -1.63523,-18.20478 -2.36505,-3.40336 -10.12079,-1.95752 -13.6925,-1.96329 -10.45699,-0.0168 -20.95234,-0.80263 -31.46218,-0.80672 -3.63815,-0.001 -8.93802,0.54561 -11.50203,-2.66478 -2.44521,-3.06165 -1.19718,-8.22785 -1.54248,-11.85623 -1.06958,-11.23941 -0.66978,-22.5836 -0.66978,-33.88235 0,-3.87768 1.74083,-13.396453 -1.96327,-15.878021 -4.32452,-2.89719 -13.98861,-1.063157 -19.01152,-1.063157 -4.26933,0 -10.44531,-1.113182 -14.43324,0.598838 m 584.02613,59.5605 c -5.72352,1.78849 -4.08029,11.07018 -4.08029,15.6726 v 29.04201 c 0,4.08305 -0.94286,9.82893 1.15656,13.53004 1.87486,3.30523 7.7074,3.14471 10.89696,2.14256 4.7457,-1.49109 3.8667,-11.50574 4.04918,-15.6726 0.46939,-10.72004 0.96369,-22.44135 -0.43261,-33.07563 -0.37761,-2.87577 0.56949,-7.63624 -1.17148,-10.07285 -1.91425,-2.67917 -7.64294,-2.43337 -10.41832,-1.56613 m 37.86929,60.04235 c 0.66034,-8.3665 0.80672,-16.59651 0.80672,-25.00841 v -16.94117 c 0,-4.68647 1.24529,-11.71595 -1.15656,-15.95021 -2.03916,-3.5949 -11.70919,-3.95902 -14.14935,-0.57643 -2.22218,3.0804 -1.63388,9.67767 -1.63526,13.29974 v 31.46219 c 0.005,3.34073 -0.53966,10.53964 2.10021,13.02209 3.25447,3.06047 10.15366,1.18261 14.03424,0.6922 M 277.5126,158.49487 c -21.54701,4.07197 -25.71253,36.10128 -13.90725,51.22068 10.84236,13.88613 25.15085,6.44881 38.7787,4.99224 3.89429,-0.41621 7.19265,3.53133 11.24682,1.69868 2.61356,-1.18143 2.56703,-4.20447 2.60132,-6.65857 0.0729,-5.21326 2.57128,-21.67373 -3.34268,-24.08218 -7.00362,-2.85223 -28.15646,-3.92199 -26.38346,7.12545 0.65278,4.06749 8.83139,4.13406 8.24528,7.1995 -0.90643,4.74077 -10.86882,2.03335 -13.17025,0.35668 -9.11355,-6.63956 -6.32862,-25.48735 5.6122,-27.20572 6.06903,-0.87339 9.00871,6.19897 14.521,7.33953 2.98767,0.61819 10.75619,1.33057 12.99036,-1.18083 3.35459,-3.77083 -1.92446,-10.92572 -4.49114,-13.568 -8.01525,-8.25143 -21.81558,-9.2946 -32.7009,-7.23746 m 265.41177,15.75724 c 6.79603,0 34.89587,1.75628 25.79272,-12.68284 -1.80444,-2.86214 -5.91201,-2.62988 -8.85155,-2.64426 -8.33543,-0.0407 -16.67287,-0.014 -25.0084,-6.4e-4 -2.82181,0.005 -7.71818,-0.5267 -9.65886,2.06851 -2.24325,2.9998 -1.63388,9.69682 -1.63526,13.25923 -0.004,11.18864 -3.40631,29.15034 1.26179,39.48209 1.30363,2.88527 3.95434,3.22147 6.80544,3.27047 1.85235,0.0318 3.82026,0.10694 5.64332,-0.27387 10.11933,-2.11385 1.78666,-14.57261 7.52068,-19.40369 5.01375,-4.22421 26.63657,3.01098 20.23158,-11.66139 -3.93085,-9.00462 -21.91539,4.33658 -22.10146,-11.41361 m 137.31529,-14.7289 c -3.72947,1.68819 -4.85088,8.02744 -6.16121,11.502 -3.91549,10.38257 -7.47366,20.92418 -10.95176,31.46219 -0.95971,2.90773 -4.48572,10.39773 -1.90228,13.02209 2.40914,2.4473 9.38391,1.90853 12.38593,1.03706 7.54096,-2.18909 9.27593,-8.7478 18.55772,-7.36262 8.59659,1.2829 12.60554,12.05283 23.27546,7.22564 6.0936,-2.75681 -0.87364,-16.19881 -2.45567,-20.37595 -3.1264,-8.25493 -5.72884,-16.71542 -8.76188,-25.00841 -1.20502,-3.29469 -2.20825,-8.37014 -5.11489,-10.60192 -2.88956,-2.21868 -7.57174,-1.49916 -10.97663,-1.49892 -2.46793,1.5e-4 -5.5832,-0.44752 -7.89479,0.59884 M 350.92127,170.7482 c -3.10011,0.15382 -5.80404,2.05117 -8.87085,2.35916 -4.62137,0.46407 -12.01167,-3.93765 -15.30843,1.329 -4.32459,6.90864 -2.31534,24.28228 -1.29039,32.08465 0.34915,2.65785 -0.16471,7.04726 1.8699,9.08184 1.92512,1.92512 5.80246,1.51905 8.27452,1.33273 11.89906,-0.89687 3.43135,-18.53354 9.2244,-25.65515 3.12601,-3.84286 10.05501,-2.84229 11.95892,-7.39497 1.92736,-4.60882 0.37502,-13.44653 -5.85807,-13.13726 m 28.23839,-0.17554 c -2.74253,0.43168 -5.47721,1.11722 -8.06723,2.12139 -4.36447,1.69218 -14.94655,10.96348 -5.61158,13.60848 6.20611,1.75845 11.09286,-1.61887 16.90509,-2.57705 1.53801,-0.25357 4.75744,0.24757 4.33177,2.53096 -0.53098,2.84834 -5.50646,2.47206 -7.55805,2.74947 -5.85174,0.79131 -13.59269,2.39334 -16.86897,7.86678 -1.30723,2.18387 -1.63602,4.73058 -1.67071,7.22816 -0.27036,19.46715 18.05759,10.78494 29.02708,10.78494 6.00088,0 11.44926,3.51262 17.73234,1.86618 9.35732,-2.45202 -0.45105,-13.42407 -0.75569,-18.29818 -0.40203,-6.43237 0.54967,-13.32565 -2.3909,-19.34889 -3.86962,-7.92626 -17.26553,-9.76118 -25.07315,-8.53224 m 53.2437,0.82731 c -16.95772,3.05761 -25.60545,24.99511 -14.69093,39.07932 6.77152,8.7381 21.17327,9.90668 30.82538,6.1519 4.71453,-1.83403 15.8826,-10.15971 10.80425,-16.30752 -8.74002,-10.58066 -21.1973,14.66527 -28.29571,0.53783 -2.22868,-4.43555 -1.70326,-13.32309 3.05761,-15.97758 7.99332,-4.45682 14.81003,11.35591 24.66417,4.6741 3.97551,-2.69565 0.008,-9.50326 -2.33552,-11.92963 -5.72112,-5.92428 -16.19876,-7.64033 -24.02925,-6.22842 m 54.05042,-0.0206 c -18.52483,2.91713 -26.2856,26.66198 -13.44909,40.70404 5.62992,6.15865 16.06641,7.43038 23.93648,6.29627 18.10843,-2.60949 25.5358,-26.18171 13.4485,-40.05912 -5.7799,-6.63592 -15.60706,-8.25276 -23.93589,-6.94119 m 103.2605,0.0206 c -18.68899,3.36978 -25.39522,28.00244 -11.74603,41.19761 6.42404,6.21035 15.52996,6.71972 23.84687,5.14099 16.19285,-3.07371 22.47523,-24.70712 13.19078,-37.8363 -5.40515,-7.64348 -16.43712,-10.09886 -25.29162,-8.5023 m 59.69748,0.0522 c -2.4374,0.55329 -4.72527,2.14389 -7.2605,2.17993 -4.43654,0.0631 -11.07979,-4.58784 -14.3766,0.80422 -4.11672,6.73306 -0.96369,23.45271 -0.95114,31.27793 0.005,2.87695 -0.45836,7.54466 1.6041,9.88856 2.04846,2.32799 7.79597,1.62851 10.48119,1.01589 7.97022,-1.81838 4.17295,-17.66641 6.18858,-23.79956 2.01489,-6.13092 8.40608,-3.48189 11.62465,-7.62216 4.65964,-5.99409 0.48308,-15.51385 -7.31028,-13.74481 m 40.33613,9.25368 c 2.08077,6.39686 5.46724,17.36679 -5.64705,12.90756 l 4.03361,-12.90756 h 1.61344 m -192.80672,4.84033 c -2.41967,4.38808 -8.87439,4.38813 -11.29411,0 3.95232,-1.90203 7.34184,-1.90198 11.29411,0 m 96.01492,-1.2605 c 11.11701,-3.00138 13.41393,18.5238 4.01495,21.07809 -10.8974,2.96155 -12.41759,-18.80953 -4.01495,-21.07809 m -92.78803,14.16807 c -1.25878,5.1819 -7.42954,9.54881 -12.72331,6.30936 -1.94792,-1.19201 -3.33546,-4.51689 -0.73139,-5.82259 1.89273,-0.94902 4.91937,-0.61465 7.00092,-0.79742 2.20623,-0.19375 4.26528,0.0522 6.45378,0.31065 m -117.77777,0.35048 c 5.93649,-1.61621 8.87592,4.32732 2.41269,6.38342 -6.55477,2.08519 -9.24024,-4.52462 -2.41269,-6.38342 m 6.45004,478.84281 c 0.10897,13.16498 1.78591,26.34512 0.23032,39.52941 -0.41937,3.55428 1.065,9.70125 -2.10022,12.21537 -4.5795,3.63749 -15.96788,1.49891 -21.52505,1.49891 -17.21379,0 -34.48026,-0.43989 -51.63026,0.73454 -6.01245,0.41174 -12.77073,-1.04548 -18.55462,0.96665 -9.04764,3.14762 -10.63353,17.55119 -7.46841,25.72428 2.6796,6.91934 10.2686,6.45689 16.34236,6.45689 h 44.36975 c 55.12933,0 110.31489,-0.14855 165.37815,-0.80362 12.90426,-0.15348 25.81744,0.0176 38.72269,-0.003 5.96327,-0.01 12.54201,-0.28071 15.352,-6.45689 3.91387,-8.60255 2.28585,-21.12305 -7.28478,-24.99782 -5.29781,-2.14487 -14.42696,-1.54953 -20.16806,-1.61782 -16.93586,-0.20149 -33.88639,-0.003 -50.82353,-0.003 -4.85703,0 -14.46754,1.623 -17.95578,-2.6735 -3.54439,-4.36572 -2.14217,-19.11845 -2.20919,-24.75507 -0.0729,-6.13373 -2.15797,-18.93376 2.09653,-23.94525 3.19518,-3.76363 14.30721,-2.6766 18.87516,-2.6766 h 53.2437 146.82353 43.56302 c 6.4815,0 14.79635,1.36795 20.97479,-0.77934 36.6079,-12.72287 25.81513,-65.57055 25.81513,-96.02738 V 375.93278 c 0,-24.48278 0.29434,-48.99161 -0.77497,-73.41176 -0.45535,-10.39877 0.97325,-21.20159 -1.25681,-31.46219 -3.43418,-15.80081 -19.46327,-17.7479 -32.6573,-17.7479 H 645.37815 308.16807 229.10924 209.7479 c -2.10312,9.4e-4 -5.61967,-0.59588 -7.11609,1.29349 -1.6172,2.04187 -0.95098,5.96588 -0.95114,8.38718 -4.7e-4,7.30039 0.78668,14.51761 0.80672,21.78152 133.39899,0 266.7898,0.80672 400.13445,0.80672 h 104.06723 26.62185 c 3.34314,0 8.28511,-0.88718 11.10987,1.29349 4.38448,3.38475 3.41114,13.13313 3.41114,18.06785 v 50.82353 208.94119 46.78991 c 0,6.73085 1.40334,15.24787 -0.25644,21.77841 -1.20964,4.75939 -6.66048,6.64764 -11.03768,7.12358 -16.54904,1.79937 -34.17158,0.14003 -50.82353,0.14003 H 584.87395 276.70588 c -38.17649,0 -76.44795,-0.7921 -114.55462,-0.80672 h -29.84874 c -4.17655,0 -10.0253,0.70618 -13.53065,-2.0884 -5.10425,-4.06926 -3.41053,-13.98884 -3.41053,-19.69312 V 563.09245 338.82354 c 0,-15.59269 -2.19619,-32.9973 0.11889,-48.40336 0.45715,-3.04225 2.73467,-5.17295 3.57735,-8.06723 2.00498,-6.88639 2.58586,-19.04947 -0.26082,-25.76781 -1.87286,-4.42004 -8.39225,-3.47658 -12.30937,-3.20203 -10.703067,0.75015 -21.632999,7.63772 -24.605665,18.48244 -1.914631,6.98487 -0.402734,16.17035 -0.402734,23.39496 v 48.40336 c 0,76.05154 -0.806723,152.19063 -0.806723,228.30253 0,17.22927 0.806723,34.45628 0.806723,51.63025 0,14.15685 -1.205185,28.06277 7.336442,40.32432 8.596799,12.34073 22.840277,12.91938 36.226587,12.91938 h 41.14285 c 74.21189,0 148.51263,0.80673 222.65546,0.80673 M 644.57142,405.78152 c 16.53792,4.76407 37.07237,18.95385 41.2244,36.30252 2.19938,9.18977 -0.0987,15.75803 -3.41675,24.20169 -0.95095,2.41997 -1.85772,5.68064 1.03765,7.2026 3.83981,2.01848 8.05181,-3.18416 10.29196,-5.58975 7.82611,-8.40412 11.36695,-18.48126 11.36695,-29.84815 0,-30.85 -28.50636,-50.28919 -48.40337,-70.18487 -5.15265,-5.15232 -17.67153,-21.51184 -25.81202,-18.43138 -9.75729,3.69224 -6.45688,25.30496 -6.45688,33.75911 v 68.57143 c 0,9.50174 2.25723,22.26139 -0.25644,31.41491 -1.57784,5.74564 -18.88545,3.32882 -23.94524,4.08399 -14.31396,2.13626 -33.47299,12.79279 -38.87459,26.61875 -8.1565,20.87739 3.99939,40.05715 26.77375,41.0588 16.97786,0.7467 36.06169,-8.32824 46.36292,-21.69746 9.25865,-12.01615 7.1021,-26.24212 7.71925,-40.33613 1.24101,-28.34185 -2.79378,-59.21298 2.38841,-87.12606 M 200.06723,394.02614 c -12.02989,1.74279 -16.42126,11.09431 -16.90943,22.24278 -1.2664,28.92049 -0.0318,58.17483 -0.0318,87.12605 0,10.88229 -1.52457,26.22883 6.60317,34.60439 10.25147,10.56411 33.99619,6.53847 47.44725,6.53847 h 91.96638 c 15.51492,0 33.20828,2.2788 48.40337,-1.23372 13.60389,-3.14476 16.13369,-15.90943 16.13445,-27.8083 v -83.09244 c 0,-10.75146 3.31259,-26.03946 -5.65016,-33.70992 -5.0111,-4.28857 -10.03339,-3.76265 -16.13135,-4.34298 -11.23942,-1.06965 -22.58363,-0.66979 -33.88236,-0.66979 h -91.15966 c -15.20478,0 -31.74287,-1.83443 -46.78991,0.34546 m 271.8618,9.00281 c -5.21603,0.75709 -10.6651,4.65593 -15.32399,6.98536 -10.81582,5.4079 -21.46048,11.13788 -32.26891,16.54283 -4.88499,2.44282 -13.3607,5.373 -15.67944,10.71892 -4.98603,11.49545 -1.26173,31.13184 -1.26173,43.53067 0,4.45933 -0.73642,11.37192 2.09957,15.15594 6.57589,8.77415 25.32452,14.08304 35.00967,18.92564 6.73636,3.36815 21.23324,13.98027 28.93433,12.28322 6.27923,-1.38375 3.06706,-21.23625 3.40676,-26.19673 1.72118,-25.13332 0.73454,-50.61372 0.73454,-75.83193 0,-4.79814 1.77618,-23.1919 -5.6508,-22.11392 z"/></svg>
